<?xml version="1.0" standalone="no"?>
<!DOCTYPE svg PUBLIC "-//W3C//DTD SVG 20010904//EN"
 "http://www.w3.org/TR/2001/REC-SVG-20010904/DTD/svg10.dtd">
<svg version="1.0" xmlns="http://www.w3.org/2000/svg" width="180" height="180"
 viewBox="0 0 176.000000 119.000000"
 preserveAspectRatio="xMidYMid meet">
<metadata>
Created by potrace 1.10, written by Peter Selinger 2001-2011
</metadata>
<g transform="translate(0.000000,119.000000) scale(0.100000,-0.100000)"
fill="#000000" stroke="none">
<path d="M1053 1149 c-20 -20 -16 -42 15 -85 16 -22 37 -63 46 -91 9 -28 23
-57 31 -63 10 -8 11 -19 4 -43 -26 -90 5 -202 54 -195 17 2 23 12 28 38 l6 35
11 -27 c11 -27 88 -108 102 -108 5 0 -5 14 -22 32 -16 18 -45 61 -63 97 l-33
66 -16 -37 c-9 -21 -16 -44 -16 -53 0 -31 -20 -14 -31 28 -9 32 -9 56 0 100 9
42 9 62 1 72 -6 7 -21 40 -34 73 -13 34 -36 77 -51 96 -36 48 -17 55 56 21 30
-13 63 -25 74 -25 33 0 120 -56 161 -103 43 -49 48 -56 98 -170 32 -71 39 -79
81 -97 25 -11 61 -30 81 -44 l36 -24 -56 -12 c-51 -10 -55 -13 -45 -31 6 -11
27 -31 47 -45 83 -56 112 -73 112 -65 0 10 -76 80 -106 98 -22 13 -14 17 49
28 20 3 37 10 37 15 0 13 -99 86 -139 103 -27 12 -39 29 -76 108 -67 146 -194
269 -278 269 -16 0 -42 9 -58 21 -36 26 -90 35 -106 18z"/>
<path d="M1192 1015 c7 -16 15 -22 21 -16 13 13 1 41 -17 41 -13 0 -14 -4 -4
-25z"/>
<path d="M79 508 c-6 -20 -29 -298 -29 -355 0 -30 3 -33 30 -33 l30 0 1 83 c1
45 4 114 8 152 l6 70 18 -60 c69 -230 73 -240 104 -243 28 -3 28 -2 73 147 25
82 48 147 53 144 4 -2 7 -28 7 -57 0 -29 3 -94 6 -144 l7 -92 33 0 c31 0 32 1
28 38 -2 20 -9 108 -15 195 l-12 158 -41 -3 -40 -3 -45 -138 c-24 -76 -47
-134 -51 -130 -4 4 -26 68 -49 141 l-42 132 -39 0 c-22 0 -40 -1 -41 -2z"/>
<path d="M828 493 c-47 -29 -63 -97 -33 -140 8 -12 40 -36 70 -53 69 -40 85
-55 85 -85 0 -47 -75 -71 -131 -41 -23 12 -27 11 -37 -5 -10 -16 -8 -21 16
-33 103 -53 222 -5 222 91 0 42 -23 68 -100 113 -71 42 -91 70 -69 97 21 24
50 31 93 21 29 -7 41 -6 47 4 14 21 11 25 -22 37 -46 16 -110 13 -141 -6z"/>
<path d="M1122 490 c-49 -30 -72 -88 -72 -185 0 -111 22 -156 84 -180 28 -11
59 -15 79 -12 25 4 46 -1 77 -19 51 -29 52 -29 68 -4 11 19 9 22 -23 36 l-36
15 20 28 c44 61 51 203 15 272 -34 67 -142 91 -212 49z m136 -51 c52 -55 40
-238 -16 -268 -31 -17 -66 -13 -90 9 -52 49 -56 206 -6 261 24 27 87 25 112
-2z"/>
<path d="M1410 315 l0 -195 95 0 95 0 0 26 c0 25 -2 25 -61 23 l-61 -3 2 172
1 172 -36 0 -35 0 0 -195z"/>
<path d="M490 397 c0 -7 18 -67 40 -132 22 -65 40 -131 40 -146 0 -32 -32 -59
-67 -59 -16 0 -23 -6 -23 -20 0 -17 7 -20 40 -20 78 0 146 96 190 270 11 47
23 93 26 103 4 14 -1 17 -30 17 -30 0 -36 -4 -36 -21 0 -12 -9 -63 -21 -113
-22 -93 -39 -131 -39 -85 0 14 -14 68 -30 122 -30 94 -32 97 -60 97 -18 0 -30
-5 -30 -13z"/>
<path d="M1638 145 c5 -30 22 -33 22 -4 0 11 4 18 10 14 5 -3 7 -12 4 -19 -4
-10 3 -13 25 -12 19 0 32 7 35 18 5 22 -13 36 -24 18 -4 -7 -10 -8 -13 -3 -3
5 -19 10 -35 11 -26 2 -29 0 -24 -23z"/>
</g>
</svg>
